<svg width="38" height="41" viewBox="0 0 38 41" fill="none" xmlns="http://www.w3.org/2000/svg">
<path d="M35.3125 5.62756V0.940063H4.6875V5.62756H3.51562C1.5625 5.62756 0 7.26819 0 9.22131V16.2526C0 18.2057 1.5625 19.7682 3.51562 19.7682H17.6562C18.2812 19.7682 18.8281 20.3151 18.8281 20.9401V24.4557H16.4844V40.9401H23.5156V24.4557H21.1719V20.9401C21.1719 18.9869 19.6094 17.4244 17.6562 17.4244H3.51562C2.89062 17.4244 2.34375 16.8776 2.34375 16.2526V9.22131C2.34375 8.51819 2.89062 7.97131 3.51562 7.97131H4.6875V15.0807H35.3125V7.97131H37.6562V5.62756H35.3125ZM21.1719 38.5963H18.8281V26.7994H21.1719V38.5963ZM32.9688 12.7369H7.03125V3.28381H32.9688V12.7369Z" fill="#FF214F"/>
</svg>
