<svg width="34" height="42" viewBox="0 0 34 42" fill="none" xmlns="http://www.w3.org/2000/svg">
<path d="M8.54688 0.940063H3.9375C1.98438 0.940063 0.34375 2.50256 0.34375 4.45569V29.5338L6.28125 41.1744L12.0625 29.5338V4.45569C12.0625 2.50256 10.5 0.940063 8.54688 0.940063ZM3.9375 3.28381H8.54688C9.25 3.28381 9.71875 3.83069 9.71875 4.45569V6.87756H2.6875V4.45569C2.6875 3.83069 3.23438 3.28381 3.9375 3.28381ZM2.6875 11.6432V9.22131H9.71875V11.6432H2.6875ZM7.29688 33.9088H5.26562L2.6875 28.9869V13.9869H5.10938V29.2213H7.45312V13.9869H9.71875V28.9869L7.29688 33.9088ZM16.8281 0.940063V40.9401H33.3125V0.940063H16.8281ZM30.9688 38.5963H19.1719V36.2526H23.8594V33.9088H19.1719V31.5651H21.5156V29.1432H19.1719V26.7994H23.8594V24.4557H19.1719V22.1901H21.5156V19.7682H19.1719V17.4244H23.8594V15.0807H19.1719V12.7369H21.5156V10.3151H19.1719V7.97131H23.8594V5.62756H19.1719V3.28381H30.9688V38.5963Z" fill="#FF214F"/>
</svg>
