<svg width="19" height="19" viewBox="0 0 19 19" fill="none" xmlns="http://www.w3.org/2000/svg">
<g id="Icon" clip-path="url(#clip0_3_726)">
<path id="Vector" d="M18.63 2.27197V10.7095C18.63 11.5884 17.9269 12.2915 17.048 12.2915H16.5206V11.2368H17.048C17.3292 11.2368 17.5753 10.9907 17.5753 10.7095V2.27197C17.5753 1.99072 17.3292 1.74463 17.048 1.74463H2.21204C1.93079 1.74463 1.68469 1.99072 1.68469 2.27197V10.7095C1.68469 10.9907 1.93079 11.2368 2.21204 11.2368H3.79407V14.2954L5.6925 12.6431L6.39563 13.4517L2.73938 16.6509V12.2915H2.21204C1.33313 12.2915 0.630005 11.5884 0.630005 10.7095V2.27197C0.630005 1.39307 1.33313 0.689941 2.21204 0.689941H17.048C17.9269 0.689941 18.63 1.39307 18.63 2.27197ZM15.4659 10.7798V14.0142C15.4659 14.8931 14.7628 15.5962 13.8839 15.5962H13.3566V18.8306L9.48938 15.5962H8.57532C7.69641 15.5962 6.99329 14.8931 6.99329 14.0142V10.7798C6.99329 9.90088 7.69641 9.19775 8.57532 9.19775H13.8839C14.7628 9.19775 15.4659 9.90088 15.4659 10.7798ZM14.4113 10.7798C14.4113 10.4985 14.1652 10.2524 13.8839 10.2524H8.57532C8.29407 10.2524 8.04797 10.4985 8.04797 10.7798V14.0142C8.04797 14.2954 8.29407 14.5415 8.57532 14.5415H9.8761L12.3019 16.5806V14.5415H13.8839C14.1652 14.5415 14.4113 14.2954 14.4113 14.0142V10.7798Z" fill="#495057"/>
</g>
<defs>
<clipPath id="clip0_3_726">
<rect width="18" height="18" fill="white" transform="matrix(1 0 0 -1 0.630005 18.6899)"/>
</clipPath>
</defs>
</svg>
