<svg width="19" height="19" viewBox="0 0 19 19" fill="none" xmlns="http://www.w3.org/2000/svg">
<g id="Icon" clip-path="url(#clip0_3_730)">
<path id="Vector" d="M18.1848 10.0415C16.8138 6.56104 13.2278 4.24072 9.22 4.24072C5.21219 4.24072 1.62625 6.56104 0.255157 10.0415C0.220001 10.147 0.220001 10.2876 0.255157 10.4282C1.62625 13.8735 5.21219 16.1938 9.22 16.1938C13.2278 16.1938 16.8138 13.8735 18.1848 10.4282C18.22 10.2876 18.22 10.147 18.1848 10.0415ZM9.22 15.1392C5.73953 15.1392 2.57547 13.1704 1.30984 10.2173C2.57547 7.26416 5.73953 5.29541 9.22 5.29541C12.7005 5.29541 15.8645 7.26416 17.1302 10.2173C15.8645 13.1704 12.7005 15.1392 9.22 15.1392ZM9.22 6.3501C7.07547 6.3501 5.35281 8.10791 5.35281 10.2173C5.35281 12.3618 7.07547 14.0845 9.22 14.0845C11.3645 14.0845 13.0872 12.3618 13.0872 10.2173C13.0872 8.10791 11.3645 6.3501 9.22 6.3501ZM9.22 13.0298C7.67313 13.0298 6.4075 11.7642 6.4075 10.2173C6.4075 8.67041 7.67313 7.40479 9.22 7.40479C10.7669 7.40479 12.0325 8.67041 12.0325 10.2173C12.0325 11.7642 10.7669 13.0298 9.22 13.0298ZM9.22 8.77588C8.41141 8.77588 7.77859 9.44385 7.77859 10.2173C7.77859 11.0259 8.41141 11.6587 9.22 11.6587C10.0286 11.6587 10.6614 11.0259 10.6614 10.2173C10.6614 9.44385 10.0286 8.77588 9.22 8.77588ZM9.22 10.604C9.00906 10.604 8.83328 10.4282 8.83328 10.2173C8.83328 10.0063 9.00906 9.83057 9.22 9.83057C9.43094 9.83057 9.60672 10.0063 9.60672 10.2173C9.60672 10.4282 9.43094 10.604 9.22 10.604Z" fill="#495057"/>
</g>
<defs>
<clipPath id="clip0_3_730">
<rect width="18" height="18" fill="white" transform="matrix(1 0 0 -1 0.220001 18.6899)"/>
</clipPath>
</defs>
</svg>
