<svg width="21" height="21" viewBox="0 0 21 21" fill="none" xmlns="http://www.w3.org/2000/svg">
<g id="Icon" clip-path="url(#clip0_3_1226)">
<path id="Vector" d="M11.9888 16.5039H10.8169C10.8169 12.6758 7.65283 9.58984 3.78564 9.58984V8.41797C8.31689 8.41797 11.9888 12.0508 11.9888 16.5039ZM3.78564 4.12109V5.33203C10.0747 5.33203 14.9575 10.2148 14.9575 16.5039H16.1685C16.1685 9.55078 10.7388 4.12109 3.78564 4.12109ZM7.34033 14.7461C7.34033 13.7695 6.52002 12.9492 5.58252 12.9492C4.60596 12.9492 3.78564 13.7695 3.78564 14.7461C3.78564 15.6836 4.60596 16.5039 5.58252 16.5039C6.52002 16.5039 7.34033 15.6836 7.34033 14.7461ZM6.16846 14.7461C6.16846 15.0586 5.89502 15.332 5.58252 15.332C5.23096 15.332 4.95752 15.0586 4.95752 14.7461C4.95752 14.3945 5.23096 14.1211 5.58252 14.1211C5.89502 14.1211 6.16846 14.3945 6.16846 14.7461ZM20.27 18.2617V1.77734C20.27 0.800781 19.4888 0.0195312 18.5122 0.0195312H2.02783C1.05127 0.0195312 0.27002 0.800781 0.27002 1.77734V18.2617C0.27002 19.2383 1.05127 20.0195 2.02783 20.0195H18.5122C19.4888 20.0195 20.27 19.2383 20.27 18.2617ZM18.5122 1.19141C18.8247 1.19141 19.0981 1.46484 19.0981 1.77734V18.2617C19.0981 18.5742 18.8247 18.8477 18.5122 18.8477H2.02783C1.71533 18.8477 1.44189 18.5742 1.44189 18.2617V1.77734C1.44189 1.46484 1.71533 1.19141 2.02783 1.19141H18.5122Z" fill="#EAF0FC"/>
</g>
<defs>
<clipPath id="clip0_3_1226">
<rect width="20" height="20" fill="white" transform="matrix(1 0 0 -1 0.27002 20.0195)"/>
</clipPath>
</defs>
</svg>
