<svg width="30" height="31" viewBox="0 0 30 31" fill="none" xmlns="http://www.w3.org/2000/svg">
<g clip-path="url(#clip0_1_234)">
<path d="M15 0.52002C6.73828 0.52002 0 7.2583 0 15.52C0 23.7817 6.73828 30.52 15 30.52C23.3203 30.52 30 23.7817 30 15.52C30 7.2583 23.3203 0.52002 15 0.52002ZM1.81641 16.3989H7.03125C7.08984 18.2153 7.38281 19.9731 7.91016 21.6724H3.33984C2.46094 20.0903 1.93359 18.2739 1.81641 16.3989ZM7.03125 14.6411H1.81641C1.93359 12.7661 2.46094 10.9497 3.33984 9.36768H7.91016C7.38281 11.0669 7.08984 12.8247 7.03125 14.6411ZM9.78516 9.36768H20.2148C20.8008 11.0669 21.0938 12.8247 21.2109 14.6411H8.78906C8.84766 12.8247 9.19922 11.0669 9.78516 9.36768ZM8.78906 16.3989H21.2109C21.0938 18.2153 20.8008 19.9731 20.2148 21.6724H9.78516C9.19922 19.9731 8.84766 18.2153 8.78906 16.3989ZM22.9688 16.3989H28.2422C28.0664 18.2739 27.5977 20.0903 26.7188 21.6724H22.0312C22.6172 19.9731 22.9102 18.2153 22.9688 16.3989ZM22.9688 14.6411C22.9102 12.8247 22.6172 11.0669 22.0898 9.36768H26.7188C27.5977 10.9497 28.0664 12.7661 28.2422 14.6411H22.9688ZM25.6055 7.55127H21.4453C20.7422 5.91064 19.8047 4.32861 18.6914 2.80518C21.5039 3.62549 23.9062 5.32471 25.6055 7.55127ZM15.9961 2.33643C17.4609 3.91846 18.6328 5.67627 19.5117 7.55127H10.4883C11.3672 5.67627 12.5391 3.91846 13.9453 2.33643C14.2969 2.33643 14.6484 2.27783 15 2.27783C15.3516 2.27783 15.7031 2.33643 15.9961 2.33643ZM11.25 2.86377C10.1367 4.32861 9.25781 5.91064 8.55469 7.55127H4.45312C6.15234 5.32471 8.49609 3.62549 11.25 2.86377ZM4.45312 23.4888H8.55469C9.25781 25.1294 10.1953 26.7114 11.3086 28.2349C8.55469 27.4146 6.15234 25.7153 4.45312 23.4888ZM14.0039 28.7036C12.5391 27.1216 11.3672 25.3638 10.4883 23.4888H19.5117C18.6328 25.3638 17.4609 27.1216 15.9961 28.7036C15.7031 28.7036 15.3516 28.7622 15 28.7622C14.6484 28.7622 14.3555 28.7036 14.0039 28.7036ZM18.6914 28.2349C19.8047 26.77 20.7422 25.1294 21.4453 23.4888H25.6055C23.9062 25.7153 21.5039 27.4146 18.6914 28.2349Z" fill="#FF214F"/>
</g>
<defs>
<clipPath id="clip0_1_234">
<rect width="30" height="30" fill="white" transform="matrix(1 0 0 -1 0 30.52)"/>
</clipPath>
</defs>
</svg>
