<svg width="21" height="21" viewBox="0 0 21 21" fill="none" xmlns="http://www.w3.org/2000/svg">
<g id="Icon" clip-path="url(#clip0_3_1217)">
<path id="Vector" d="M20.91 3.10547V4.62891H17.8241V7.71484H16.3007V4.62891H13.2147V3.10547H16.3007V0.0195312H17.8241V3.10547H20.91ZM13.1366 15.0586C13.1366 16.4258 12.4725 17.5586 11.4569 18.457C10.0507 19.6289 8.17566 20.0195 6.41785 20.0195C4.15222 20.0195 0.910034 19.043 0.910034 16.2695C0.910034 15.7227 1.10535 15.1367 1.33972 14.6289C2.43347 12.4805 5.75378 11.9336 7.90222 11.8555C7.5116 11.3477 7.16003 10.7617 7.16003 10.0977C7.16003 9.66797 7.27722 9.43359 7.39441 9.04297C7.12097 9.08203 6.84753 9.12109 6.5741 9.12109C4.23035 9.12109 2.23816 7.40234 2.23816 4.98047C2.23816 2.67578 3.99597 0.722656 6.18347 0.253906C6.92566 0.0976562 7.66785 0.0195312 8.41003 0.0195312H13.6835L12.0428 0.957031H10.4413C11.6132 1.69922 12.2382 3.18359 12.2382 4.51172C12.2382 7.71484 9.54285 7.94922 9.54285 9.51172C9.54285 11.0742 13.1366 11.6992 13.1366 15.0586ZM10.0116 5.72266C10.0116 3.88672 8.99597 0.878906 6.76941 0.878906C5.20691 0.878906 4.46472 2.28516 4.46472 3.69141C4.46472 5.52734 5.6366 8.37891 7.78503 8.37891C9.42566 8.37891 10.0116 7.20703 10.0116 5.72266ZM11.4569 16.0742C11.4569 14.3945 9.85535 13.457 8.64441 12.5977C8.4491 12.5977 8.25378 12.5977 8.01941 12.5977C6.06628 12.5977 3.1366 13.2227 3.1366 15.7227C3.1366 18.0273 5.71472 18.9258 7.66785 18.9258C9.42566 18.9258 11.4569 18.1836 11.4569 16.0742Z" fill="#EAF0FC"/>
</g>
<defs>
<clipPath id="clip0_3_1217">
<rect width="20" height="20" fill="white" transform="matrix(1 0 0 -1 0.910034 20.0195)"/>
</clipPath>
</defs>
</svg>
