<svg width="104" height="103" viewBox="0 0 104 103" fill="none" xmlns="http://www.w3.org/2000/svg">
<g clip-path="url(#clip0_1_262)">
<path d="M51.75 0.129883C23.6602 0.129883 0.75 23.04 0.75 51.1299C0.75 79.2197 23.6602 102.13 51.75 102.13C79.8398 102.13 102.75 79.2197 102.75 51.1299C102.75 23.04 79.8398 0.129883 51.75 0.129883ZM51.75 96.1533C26.8477 96.1533 6.72656 76.0322 6.72656 51.1299C6.72656 26.2275 26.8477 6.10645 51.75 6.10645C76.6523 6.10645 96.7734 26.2275 96.7734 51.1299C96.7734 76.0322 76.6523 96.1533 51.75 96.1533ZM78.8438 54.1182C78.8438 69.0596 66.6914 81.2119 51.75 81.2119C36.8086 81.2119 24.6562 69.0596 24.6562 54.1182C24.6562 52.5244 26.0508 51.1299 27.8438 51.1299C29.4375 51.1299 30.832 52.5244 30.832 54.1182C30.832 65.6729 40.1953 75.0361 51.75 75.0361C63.3047 75.0361 72.668 65.6729 72.668 54.1182C72.668 52.5244 74.0625 51.1299 75.6562 51.1299C77.4492 51.1299 78.8438 52.5244 78.8438 54.1182ZM27.8438 33.2002C27.8438 29.8135 30.4336 27.2236 33.8203 27.2236C37.0078 27.2236 39.7969 29.8135 39.7969 33.2002C39.7969 36.3877 37.0078 39.1768 33.8203 39.1768C30.4336 39.1768 27.8438 36.3877 27.8438 33.2002ZM63.7031 33.2002C63.7031 29.8135 66.4922 27.2236 69.6797 27.2236C73.0664 27.2236 75.6562 29.8135 75.6562 33.2002C75.6562 36.3877 73.0664 39.1768 69.6797 39.1768C66.4922 39.1768 63.7031 36.3877 63.7031 33.2002Z" fill="#FF214F"/>
</g>
<defs>
<clipPath id="clip0_1_262">
<rect width="102.72" height="102" fill="white" transform="matrix(1 0 0 -1 0.390015 102.13)"/>
</clipPath>
</defs>
</svg>
