<svg width="35" height="34" viewBox="0 0 35 34" fill="none" xmlns="http://www.w3.org/2000/svg">
<g id="Icon" clip-path="url(#clip0_3_1077)">
<path id="Vector" d="M33.995 2.13379H29.6122C29.6122 1.81152 29.6122 1.48926 29.6122 1.16699V0.200195H5.37781V1.16699C5.37781 1.48926 5.37781 1.81152 5.37781 2.13379H0.994995V3.10059C0.994995 5.22754 1.1239 7.35449 1.38171 9.5459C2.02625 15.2178 3.83093 21.8564 6.79578 23.2744C7.1825 23.4678 7.56921 23.5967 7.95593 23.5967C8.4071 23.5967 8.85828 23.4678 9.30945 23.1455L9.76062 22.8877C11.3719 25.4014 13.5634 27.0771 16.5282 27.335V31.2666H10.7919V33.2002H24.3915V31.2666H18.4618V27.3994C21.2333 27.0771 23.4891 25.5947 25.2294 22.8877L25.6805 23.21C26.1317 23.4678 26.5829 23.5967 27.0341 23.5967C27.4208 23.5967 27.8075 23.4678 28.1942 23.2744C31.1591 21.8564 32.9637 15.2178 33.6083 9.5459C33.8661 7.35449 33.995 5.22754 33.995 3.10059V2.13379ZM8.72937 21.2119L8.2782 21.5342C8.08484 21.6631 7.89148 21.6631 7.63367 21.5342C6.15125 20.8252 4.1532 16.3779 3.31531 9.28809C3.12195 7.54785 2.99304 5.80762 2.92859 4.06738H5.44226C5.57117 9.73926 6.40906 16.6357 8.92273 21.4697L8.72937 21.2119ZM17.495 25.5303C8.66492 25.5303 7.37585 9.86816 7.3114 2.13379H27.6786C27.6141 11.2861 26.0673 25.5303 17.495 25.5303ZM31.6747 9.28809C30.8368 16.3779 28.8387 20.8252 27.3563 21.5342C27.0985 21.6631 26.9052 21.6631 26.7118 21.5342L26.2606 21.2119L26.0028 21.5986C28.1298 17.6025 29.3544 11.7373 29.6122 4.06738H32.0614C31.9969 5.80762 31.868 7.54785 31.6747 9.28809Z" fill="#FF214F"/>
</g>
<defs>
<clipPath id="clip0_3_1077">
<rect width="33.17" height="33" fill="white" transform="matrix(1 0 0 -1 0.910034 33.2002)"/>
</clipPath>
</defs>
</svg>

<svg width="35" height="34" viewBox="0 0 35 34" fill="none" xmlns="http://www.w3.org/2000/svg">
<g clip-path="url(#clip0_1_1077)">
<path d="M33.995 2.13379H29.6122C29.6122 1.81152 29.6122 1.48926 29.6122 1.16699V0.200195H5.37781V1.16699C5.37781 1.48926 5.37781 1.81152 5.37781 2.13379H0.994995V3.10059C0.994995 5.22754 1.1239 7.35449 1.38171 9.5459C2.02625 15.2178 3.83093 21.8564 6.79578 23.2744C7.1825 23.4678 7.56921 23.5967 7.95593 23.5967C8.4071 23.5967 8.85828 23.4678 9.30945 23.1455L9.76062 22.8877C11.3719 25.4014 13.5634 27.0771 16.5282 27.335V31.2666H10.7919V33.2002H24.3915V31.2666H18.4618V27.3994C21.2333 27.0771 23.4891 25.5947 25.2294 22.8877L25.6805 23.21C26.1317 23.4678 26.5829 23.5967 27.0341 23.5967C27.4208 23.5967 27.8075 23.4678 28.1942 23.2744C31.1591 21.8564 32.9637 15.2178 33.6083 9.5459C33.8661 7.35449 33.995 5.22754 33.995 3.10059V2.13379ZM8.72937 21.2119L8.2782 21.5342C8.08484 21.6631 7.89148 21.6631 7.63367 21.5342C6.15125 20.8252 4.1532 16.3779 3.31531 9.28809C3.12195 7.54785 2.99304 5.80762 2.92859 4.06738H5.44226C5.57117 9.73926 6.40906 16.6357 8.92273 21.4697L8.72937 21.2119ZM17.495 25.5303C8.66492 25.5303 7.37585 9.86816 7.3114 2.13379H27.6786C27.6141 11.2861 26.0673 25.5303 17.495 25.5303ZM31.6747 9.28809C30.8368 16.3779 28.8387 20.8252 27.3563 21.5342C27.0985 21.6631 26.9052 21.6631 26.7118 21.5342L26.2606 21.2119L26.0028 21.5986C28.1298 17.6025 29.3544 11.7373 29.6122 4.06738H32.0614C31.9969 5.80762 31.868 7.54785 31.6747 9.28809Z" fill="#FF214F"/>
</g>
<defs>
<clipPath id="clip0_1_1077">
<rect width="33.17" height="33" fill="white" transform="matrix(1 0 0 -1 0.910034 33.2002)"/>
</clipPath>
</defs>
</svg>
