<svg width="104" height="103" viewBox="0 0 104 103" fill="none" xmlns="http://www.w3.org/2000/svg">
<g clip-path="url(#clip0_1_272)">
<path d="M79.3438 48.1416H85.3203C85.3203 63.083 73.168 75.0361 58.2266 75.0361C43.2852 75.0361 31.332 63.083 31.332 48.1416H37.3086C37.3086 59.6963 46.6719 69.0596 58.2266 69.0596C69.7812 69.0596 79.3438 59.6963 79.3438 48.1416ZM46.2734 39.1768C49.6602 39.1768 52.25 36.3877 52.25 33.2002C52.25 29.8135 49.6602 27.2236 46.2734 27.2236C42.8867 27.2236 40.2969 29.8135 40.2969 33.2002C40.2969 36.3877 42.8867 39.1768 46.2734 39.1768ZM70.1797 39.1768C73.5664 39.1768 76.1562 36.3877 76.1562 33.2002C76.1562 29.8135 73.5664 27.2236 70.1797 27.2236C66.9922 27.2236 64.2031 29.8135 64.2031 33.2002C64.2031 36.3877 66.9922 39.1768 70.1797 39.1768ZM103.25 45.1533C103.25 69.8564 83.1289 90.1768 58.2266 90.1768C50.2578 90.1768 42.2891 87.9854 35.5156 83.8018L2.44531 100.935L19.5781 67.8643C15.3945 61.0908 13.2031 53.1221 13.2031 45.1533C13.2031 20.251 33.5234 0.129883 58.2266 0.129883C83.1289 0.129883 103.25 20.251 103.25 45.1533ZM97.2734 45.1533C97.2734 23.6377 79.7422 6.10645 58.2266 6.10645C36.7109 6.10645 19.1797 23.6377 19.1797 45.1533C19.1797 52.5244 21.3711 59.8955 25.5547 66.2705L26.3516 67.665L16.3906 86.9893L35.7148 77.0283L37.1094 77.8252C43.4844 82.0088 50.8555 84.2002 58.2266 84.2002C79.7422 84.2002 97.2734 66.6689 97.2734 45.1533Z" fill="#FF214F"/>
</g>
<defs>
<clipPath id="clip0_1_272">
<rect width="102.72" height="102" fill="white" transform="matrix(1 0 0 -1 0.889999 102.13)"/>
</clipPath>
</defs>
</svg>
