<svg width="104" height="103" viewBox="0 0 104 103" fill="none" xmlns="http://www.w3.org/2000/svg">
<g clip-path="url(#clip0_1_257)">
<path d="M103.25 6.10645H89.7031C89.7031 5.11035 89.7031 4.11426 89.7031 3.11816V0.129883H14.7969V3.11816C14.7969 4.11426 14.7969 5.11035 14.7969 6.10645H1.25V9.09473C1.25 15.6689 1.64844 22.2432 2.44531 29.0166C4.4375 46.5479 10.0156 67.0674 19.1797 71.4502C20.375 72.0479 21.5703 72.4463 22.7656 72.4463C24.1602 72.4463 25.5547 72.0479 26.9492 71.0518L28.3438 70.2549C33.3242 78.0244 40.0977 83.2041 49.2617 84.001V96.1533H31.5312V102.13H73.5664V96.1533H55.2383V84.2002C63.8047 83.2041 70.7773 78.6221 76.1562 70.2549L77.5508 71.251C78.9453 72.0479 80.3398 72.4463 81.7344 72.4463C82.9297 72.4463 84.125 72.0479 85.3203 71.4502C94.4844 67.0674 100.062 46.5479 102.055 29.0166C102.852 22.2432 103.25 15.6689 103.25 9.09473V6.10645ZM25.1562 65.0752L23.7617 66.0713C23.1641 66.4697 22.5664 66.4697 21.7695 66.0713C17.1875 63.8799 11.0117 50.1338 8.42188 28.2197C7.82422 22.8408 7.42578 17.4619 7.22656 12.083H14.9961C15.3945 29.6143 17.9844 50.9307 25.7539 65.8721L25.1562 65.0752ZM52.25 78.4229C24.957 78.4229 20.9727 30.0127 20.7734 6.10645H83.7266C83.5273 34.3955 78.7461 78.4229 52.25 78.4229ZM96.0781 28.2197C93.4883 50.1338 87.3125 63.8799 82.7305 66.0713C81.9336 66.4697 81.3359 66.4697 80.7383 66.0713L79.3438 65.0752L78.5469 66.2705C85.1211 53.9189 88.9062 35.79 89.7031 12.083H97.2734C97.0742 17.4619 96.6758 22.8408 96.0781 28.2197Z" fill="#FF214F"/>
</g>
<defs>
<clipPath id="clip0_1_257">
<rect width="102.72" height="102" fill="white" transform="matrix(1 0 0 -1 0.890015 102.13)"/>
</clipPath>
</defs>
</svg>
