<svg width="34" height="34" viewBox="0 0 34 34" fill="none" xmlns="http://www.w3.org/2000/svg">
<g clip-path="url(#clip0_1_1092)">
<path d="M25.7606 15.8027H27.6942C27.6942 20.6367 23.7626 24.5039 18.9286 24.5039C14.0946 24.5039 10.2274 20.6367 10.2274 15.8027H12.161C12.161 19.541 15.1903 22.5703 18.9286 22.5703C22.6669 22.5703 25.7606 19.541 25.7606 15.8027ZM15.0614 12.9023C16.1571 12.9023 16.995 12 16.995 10.9688C16.995 9.87305 16.1571 9.03516 15.0614 9.03516C13.9657 9.03516 13.1278 9.87305 13.1278 10.9688C13.1278 12 13.9657 12.9023 15.0614 12.9023ZM22.7958 12.9023C23.8915 12.9023 24.7294 12 24.7294 10.9688C24.7294 9.87305 23.8915 9.03516 22.7958 9.03516C21.7645 9.03516 20.8622 9.87305 20.8622 10.9688C20.8622 12 21.7645 12.9023 22.7958 12.9023ZM33.495 14.8359C33.495 22.8281 26.9852 29.4023 18.9286 29.4023C16.3505 29.4023 13.7723 28.6934 11.5809 27.3398L0.881714 32.8828L6.42468 22.1836C5.07117 19.9922 4.36218 17.4141 4.36218 14.8359C4.36218 6.7793 10.9364 0.269531 18.9286 0.269531C26.9852 0.269531 33.495 6.7793 33.495 14.8359ZM31.5614 14.8359C31.5614 7.875 25.8895 2.20312 18.9286 2.20312C11.9677 2.20312 6.29578 7.875 6.29578 14.8359C6.29578 17.2207 7.00476 19.6055 8.35828 21.668L8.61609 22.1191L5.39343 28.3711L11.6454 25.1484L12.0966 25.4062C14.1591 26.7598 16.5438 27.4688 18.9286 27.4688C25.8895 27.4688 31.5614 21.7969 31.5614 14.8359Z" fill="#FF214F"/>
</g>
<defs>
<clipPath id="clip0_1_1092">
<g id="Icon" clip-path="url(#clip0_3_1092)">
<path id="Vector" d="M25.7606 15.8027H27.6942C27.6942 20.6367 23.7626 24.5039 18.9286 24.5039C14.0946 24.5039 10.2274 20.6367 10.2274 15.8027H12.161C12.161 19.541 15.1903 22.5703 18.9286 22.5703C22.6669 22.5703 25.7606 19.541 25.7606 15.8027ZM15.0614 12.9023C16.1571 12.9023 16.995 12 16.995 10.9688C16.995 9.87305 16.1571 9.03516 15.0614 9.03516C13.9657 9.03516 13.1278 9.87305 13.1278 10.9688C13.1278 12 13.9657 12.9023 15.0614 12.9023ZM22.7958 12.9023C23.8915 12.9023 24.7294 12 24.7294 10.9688C24.7294 9.87305 23.8915 9.03516 22.7958 9.03516C21.7645 9.03516 20.8622 9.87305 20.8622 10.9688C20.8622 12 21.7645 12.9023 22.7958 12.9023ZM33.495 14.8359C33.495 22.8281 26.9852 29.4023 18.9286 29.4023C16.3505 29.4023 13.7723 28.6934 11.5809 27.3398L0.881714 32.8828L6.42468 22.1836C5.07117 19.9922 4.36218 17.4141 4.36218 14.8359C4.36218 6.7793 10.9364 0.269531 18.9286 0.269531C26.9852 0.269531 33.495 6.7793 33.495 14.8359ZM31.5614 14.8359C31.5614 7.875 25.8895 2.20312 18.9286 2.20312C11.9677 2.20312 6.29578 7.875 6.29578 14.8359C6.29578 17.2207 7.00476 19.6055 8.35828 21.668L8.61609 22.1191L5.39343 28.3711L11.6454 25.1484L12.0966 25.4062C14.1591 26.7598 16.5438 27.4688 18.9286 27.4688C25.8895 27.4688 31.5614 21.7969 31.5614 14.8359Z" fill="#FF214F"/>
</g>
<defs>
<clipPath id="clip0_3_1092">
<rect width="33.17" height="33" fill="white" transform="matrix(1 0 0 -1 0.410034 33.2695)"/>
</clipPath>
</defs>
</svg>
