<svg width="30" height="31" viewBox="0 0 30 31" fill="none" xmlns="http://www.w3.org/2000/svg">
<g id="Icon" clip-path="url(#clip0_3_225)">
<path id="Vector" d="M22.0312 0.609863H7.96875C6.50391 0.609863 5.27344 1.78174 5.27344 3.24658V27.9731C5.27344 29.438 6.50391 30.6099 7.96875 30.6099H22.0312C23.4961 30.6099 24.7266 29.438 24.7266 27.9731V3.24658C24.7266 1.78174 23.4961 0.609863 22.0312 0.609863ZM7.96875 2.36768H22.0312C22.5586 2.36768 22.9688 2.77783 22.9688 3.24658V5.8833H7.03125V3.24658C7.03125 2.77783 7.44141 2.36768 7.96875 2.36768ZM22.9688 7.64111V21.7622H7.03125V7.64111H22.9688ZM22.0312 28.8521H7.96875C7.44141 28.8521 7.03125 28.4419 7.03125 27.9731V23.5786H22.9688V27.9731C22.9688 28.4419 22.5586 28.8521 22.0312 28.8521ZM15.8789 26.2153C15.8789 26.6841 15.4688 27.0942 15 27.0942C14.5312 27.0942 14.1211 26.6841 14.1211 26.2153C14.1211 25.688 14.5312 25.3364 15 25.3364C15.4688 25.3364 15.8789 25.688 15.8789 26.2153Z" fill="#FF214F"/>
</g>
<defs>
<clipPath id="clip0_3_225">
<rect width="30" height="30" fill="white" transform="matrix(1 0 0 -1 0 30.6099)"/>
</clipPath>
</defs>
</svg>
