<svg width="30" height="31" viewBox="0 0 30 31" fill="none" xmlns="http://www.w3.org/2000/svg">
<g id="Icon" clip-path="url(#clip0_3_220)">
<path id="Vector" d="M15 1.53906C9.66797 1.53906 5.27344 5.875 5.27344 11.2656C5.27344 18.9414 13.9453 29.0195 14.3555 29.4883L15 30.25L15.6445 29.4883C16.0547 29.0195 24.7266 18.9414 24.7266 11.2656C24.7266 5.875 20.332 1.53906 15 1.53906ZM15 27.4961C12.9492 24.9766 7.03125 17.125 7.03125 11.2656C7.03125 6.87109 10.6055 3.29688 15 3.29688C19.3945 3.29688 22.9688 6.87109 22.9688 11.2656C22.9688 17.125 17.0508 24.9766 15 27.4961ZM15 6.22656C12.0703 6.22656 9.72656 8.57031 9.72656 11.5C9.72656 14.4297 12.0703 16.7734 15 16.7734C17.9297 16.7734 20.2734 14.4297 20.2734 11.5C20.2734 8.57031 17.9297 6.22656 15 6.22656ZM15 15.0156C13.0664 15.0156 11.4844 13.4336 11.4844 11.5C11.4844 9.56641 13.0664 7.98438 15 7.98438C16.9336 7.98438 18.5156 9.56641 18.5156 11.5C18.5156 13.4336 16.9336 15.0156 15 15.0156Z" fill="#FF214F"/>
</g>
<defs>
<clipPath id="clip0_3_220">
<rect width="30" height="30" fill="white" transform="matrix(1 0 0 -1 0 30.6602)"/>
</clipPath>
</defs>
</svg>
