<svg width="34" height="34" viewBox="0 0 34 34" fill="none" xmlns="http://www.w3.org/2000/svg">
<g clip-path="url(#clip0_1_1082)">
<path d="M16.995 0.200195C7.9071 0.200195 0.494995 7.6123 0.494995 16.7002C0.494995 25.7881 7.9071 33.2002 16.995 33.2002C26.0829 33.2002 33.495 25.7881 33.495 16.7002C33.495 7.6123 26.0829 0.200195 16.995 0.200195ZM16.995 31.2666C8.93835 31.2666 2.42859 24.7568 2.42859 16.7002C2.42859 8.64355 8.93835 2.13379 16.995 2.13379C25.0516 2.13379 31.5614 8.64355 31.5614 16.7002C31.5614 24.7568 25.0516 31.2666 16.995 31.2666ZM25.7606 17.667C25.7606 22.501 21.829 26.4326 16.995 26.4326C12.161 26.4326 8.22937 22.501 8.22937 17.667C8.22937 17.1514 8.68054 16.7002 9.26062 16.7002C9.77625 16.7002 10.2274 17.1514 10.2274 17.667C10.2274 21.4053 13.2567 24.4346 16.995 24.4346C20.7333 24.4346 23.7626 21.4053 23.7626 17.667C23.7626 17.1514 24.2137 16.7002 24.7294 16.7002C25.3094 16.7002 25.7606 17.1514 25.7606 17.667ZM9.26062 10.8994C9.26062 9.80371 10.0985 8.96582 11.1942 8.96582C12.2255 8.96582 13.1278 9.80371 13.1278 10.8994C13.1278 11.9307 12.2255 12.833 11.1942 12.833C10.0985 12.833 9.26062 11.9307 9.26062 10.8994ZM20.8622 10.8994C20.8622 9.80371 21.7645 8.96582 22.7958 8.96582C23.8915 8.96582 24.7294 9.80371 24.7294 10.8994C24.7294 11.9307 23.8915 12.833 22.7958 12.833C21.7645 12.833 20.8622 11.9307 20.8622 10.8994Z" fill="#FF214F"/>
</g>
<defs>
<clipPath id="clip0_1_1082">
<rect width="33.17" height="33" fill="white" transform="matrix(1 0 0 -1 0.410034 33.2002)"/>
</clipPath>
</defs>
</svg>
