<svg width="40" height="42" viewBox="0 0 40 42" fill="none" xmlns="http://www.w3.org/2000/svg">
<g id="Icon" clip-path="url(#clip0_3_880)">
<path id="Vector" d="M2.34375 0.879883V40.8799H37.6562V0.879883H2.34375ZM35.3125 38.5361H4.6875V3.22363H9.375V5.80176C8.04688 6.27051 7.03125 7.59863 7.03125 9.08301C7.03125 11.0361 8.67188 12.6768 10.625 12.6768C12.5 12.6768 14.1406 11.0361 14.1406 9.08301C14.1406 7.59863 13.125 6.27051 11.7969 5.80176V3.22363H18.8281V5.80176C17.4219 6.27051 16.4844 7.59863 16.4844 9.08301C16.4844 11.0361 18.0469 12.6768 20 12.6768C21.9531 12.6768 23.5156 11.0361 23.5156 9.08301C23.5156 7.59863 22.5781 6.27051 21.1719 5.80176V3.22363H28.2031V5.80176C26.875 6.27051 25.8594 7.59863 25.8594 9.08301C25.8594 11.0361 27.5 12.6768 29.375 12.6768C31.3281 12.6768 32.9688 11.0361 32.9688 9.08301C32.9688 7.59863 31.9531 6.27051 30.625 5.80176V3.22363H35.3125V38.5361ZM11.7969 9.08301C11.7969 9.78613 11.25 10.2549 10.625 10.2549C9.92188 10.2549 9.375 9.78613 9.375 9.08301C9.375 8.45801 9.92188 7.91113 10.625 7.91113C11.25 7.91113 11.7969 8.45801 11.7969 9.08301ZM21.1719 9.08301C21.1719 9.78613 20.625 10.2549 20 10.2549C19.375 10.2549 18.8281 9.78613 18.8281 9.08301C18.8281 8.45801 19.375 7.91113 20 7.91113C20.625 7.91113 21.1719 8.45801 21.1719 9.08301ZM30.625 9.08301C30.625 9.78613 30.0781 10.2549 29.375 10.2549C28.75 10.2549 28.2031 9.78613 28.2031 9.08301C28.2031 8.45801 28.75 7.91113 29.375 7.91113C30.0781 7.91113 30.625 8.45801 30.625 9.08301Z" fill="#FF214F"/>
</g>
<defs>
<clipPath id="clip0_3_880">
<rect width="40" height="41" fill="white" transform="matrix(1 0 0 -1 0 41.3799)"/>
</clipPath>
</defs>
</svg>
