<svg width="21" height="21" viewBox="0 0 21 21" fill="none" xmlns="http://www.w3.org/2000/svg">
<g id="Icon" clip-path="url(#clip0_3_1223)">
<path id="Vector" d="M16.1226 0.0195312H5.49756C2.91943 0.0195312 0.810059 2.12891 0.810059 4.70703V15.332C0.810059 17.9102 2.91943 20.0195 5.49756 20.0195H16.1226C18.7007 20.0195 20.8101 17.9102 20.8101 15.332V4.70703C20.8101 2.12891 18.7007 0.0195312 16.1226 0.0195312ZM19.6382 15.332C19.6382 17.2461 18.0366 18.8477 16.1226 18.8477H5.49756C3.5835 18.8477 1.98193 17.2461 1.98193 15.332V8.26172H5.771C5.41943 8.96484 5.22412 9.74609 5.22412 10.6055C5.22412 13.6914 7.72412 16.1914 10.8101 16.1914C13.896 16.1914 16.396 13.6914 16.396 10.6055C16.396 9.74609 16.2007 8.96484 15.8491 8.26172H19.6382V15.332ZM15.2241 10.6055C15.2241 13.0273 13.2319 15.0195 10.8101 15.0195C8.38818 15.0195 6.396 13.0273 6.396 10.6055C6.396 8.18359 8.38818 6.19141 10.8101 6.19141C13.2319 6.19141 15.2241 8.18359 15.2241 10.6055ZM15.1069 7.08984C14.0913 5.83984 12.5288 5.01953 10.8101 5.01953C9.09131 5.01953 7.52881 5.83984 6.51318 7.08984H1.98193V4.70703C1.98193 2.79297 3.5835 1.19141 5.49756 1.19141H16.1226C18.0366 1.19141 19.6382 2.79297 19.6382 4.70703V7.08984H15.1069ZM17.8022 3.22266V4.74609C17.8022 5.09766 17.5288 5.37109 17.1772 5.37109H15.5757C15.2241 5.37109 14.9116 5.09766 14.9116 4.74609V3.22266C14.9116 2.87109 15.2241 2.59766 15.5757 2.59766H17.1772C17.5288 2.59766 17.8022 2.87109 17.8022 3.22266Z" fill="#EAF0FC"/>
</g>
<defs>
<clipPath id="clip0_3_1223">
<rect width="20" height="20" fill="white" transform="matrix(1 0 0 -1 0.810059 20.0195)"/>
</clipPath>
</defs>
</svg>
