<svg width="21" height="21" viewBox="0 0 21 21" fill="none" xmlns="http://www.w3.org/2000/svg">
<g clip-path="url(#clip0_1_125)">
<path d="M20.0637 5.21631L13.8137 1.15381L10.22 4.12256L6.62622 1.15381L0.376221 5.21631L4.0481 8.10693L0.376221 11.0366L4.43872 13.6929V15.4897L10.22 18.9272L16.0403 15.4897V13.6538L20.0637 11.0366L16.3918 8.10693L20.0637 5.21631ZM13.8918 2.59912L18.0325 5.29443L15.4153 7.40381L11.2356 4.82568L13.8918 2.59912ZM14.3215 8.10693L10.22 10.646L6.11841 8.10693L10.22 5.56787L14.3215 8.10693ZM2.40747 5.29443L6.5481 2.59912L9.20435 4.82568L5.02466 7.40381L2.40747 5.29443ZM2.40747 10.9194L5.02466 8.84912L9.20435 11.4272L6.5481 13.6538L2.40747 10.9194ZM14.8684 14.8257L10.22 17.5601L5.6106 14.8257V14.4351L6.62622 15.0991L10.22 12.1304L13.8137 15.0991L14.8684 14.4351V14.8257ZM18.0325 10.9194L13.8918 13.6538L11.2356 11.4272L15.4153 8.84912L18.0325 10.9194Z" fill="#FF214F"/>
</g>
<defs>
<clipPath id="clip0_1_125">
<rect width="20" height="20" fill="white" transform="matrix(1 0 0 -1 0.219971 20.0601)"/>
</clipPath>
</defs>
</svg>
