<svg width="21" height="21" viewBox="0 0 21 21" fill="none" xmlns="http://www.w3.org/2000/svg">
<g clip-path="url(#clip0_1_128)">
<path d="M20.67 3.84912C19.9278 4.20068 19.1465 4.396 18.3262 4.51318C19.1465 4.00537 19.8106 3.18506 20.1231 2.24756C19.3419 2.71631 18.4434 3.06787 17.5059 3.22412C16.7637 2.44287 15.709 1.93506 14.4981 1.93506C12.2325 1.93506 10.4356 3.771 10.4356 6.03662C10.4356 6.34912 10.4747 6.66162 10.5137 6.97412C7.1153 6.81787 4.06842 5.17725 2.07623 2.67725C1.72467 3.30225 1.4903 4.00537 1.4903 4.74756C1.4903 6.19287 2.23248 7.44287 3.32623 8.18506C2.66217 8.146 2.03717 7.95068 1.4903 7.63818C1.4903 7.67725 1.4903 7.67725 1.4903 7.71631C1.4903 9.7085 2.89655 11.3491 4.77155 11.7397C4.41998 11.8179 4.06842 11.8569 3.6778 11.8569C3.44342 11.8569 3.16998 11.8179 2.93561 11.7788C3.44342 13.4194 4.96686 14.5913 6.76373 14.6304C5.35748 15.7632 3.56061 16.3882 1.64655 16.3882C1.33405 16.3882 0.982483 16.3882 0.669983 16.3491C2.46686 17.521 4.65436 18.1851 6.95905 18.1851C14.4981 18.1851 18.6387 11.9351 18.6387 6.50537C18.6387 6.34912 18.6387 6.15381 18.5997 5.99756C19.42 5.41162 20.1231 4.66943 20.67 3.84912ZM17.4669 6.50537C17.4669 10.8804 14.1856 17.0132 6.95905 17.0132C6.37311 17.0132 5.82623 16.9741 5.2403 16.8569C6.02155 16.5444 6.8028 16.1147 7.46686 15.5679C7.85748 15.2554 8.01373 14.7476 7.85748 14.2788C7.70123 13.8101 7.27155 13.4585 6.76373 13.4585C6.13873 13.4585 5.51373 13.2241 5.04498 12.8726C5.59186 12.7163 5.94342 12.2476 5.94342 11.7007C5.94342 11.1538 5.5528 10.6851 5.00592 10.5679C4.22467 10.4116 3.59967 9.94287 3.16998 9.35693C3.20905 9.35693 3.24811 9.35693 3.28717 9.35693H3.32623C3.83405 9.35693 4.3028 9.00537 4.45905 8.53662C4.6153 8.02881 4.41998 7.48193 3.9903 7.2085C3.24811 6.70068 2.77936 5.91943 2.70123 5.021C4.84967 6.896 7.58405 7.98975 10.4747 8.146H10.5137C10.8653 8.146 11.1778 7.98975 11.4122 7.75537C11.6465 7.48193 11.7247 7.09131 11.6856 6.73975C11.6075 6.50537 11.6075 6.271 11.6075 6.03662C11.6075 4.43506 12.8965 3.10693 14.4981 3.10693C15.3184 3.10693 16.0997 3.4585 16.6465 4.04443C16.8028 4.20068 16.959 4.27881 17.1544 4.35693C17.1153 4.51318 17.1153 4.7085 17.1934 4.86475C17.2715 5.09912 17.3887 5.29443 17.584 5.41162C17.4669 5.60693 17.4278 5.84131 17.4278 6.07568C17.4669 6.23193 17.4669 6.34912 17.4669 6.50537Z" fill="#FF214F"/>
</g>
<defs>
<clipPath id="clip0_1_128">
<rect width="20" height="20" fill="white" transform="matrix(1 0 0 -1 0.669983 20.0601)"/>
</clipPath>
</defs>
</svg>
