<svg width="21" height="21" viewBox="0 0 21 21" fill="none" xmlns="http://www.w3.org/2000/svg">
<g clip-path="url(#clip0_1_122)">
<path d="M16.1606 13.146C16.1606 14.0054 15.6919 15.4507 14.5981 15.4507C13.5435 15.4507 13.0747 14.0054 13.0747 13.146C13.0747 12.2476 13.5435 10.8413 14.5981 10.8413C15.6919 10.8413 16.1606 12.2476 16.1606 13.146ZM6.94189 10.8413C5.84814 10.8413 5.37939 12.2476 5.37939 13.146C5.37939 14.0054 5.84814 15.4507 6.94189 15.4507C7.99658 15.4507 8.46533 14.0054 8.46533 13.146C8.46533 12.2476 7.99658 10.8413 6.94189 10.8413ZM20.77 11.0366C20.77 12.3647 20.6528 13.771 20.0278 14.9819C18.4653 18.2241 14.0903 18.5366 10.9653 18.5366C7.80127 18.5366 3.15283 18.2632 1.51221 14.9819C0.887207 13.771 0.77002 12.3647 0.77002 11.0366C0.77002 9.27881 1.23877 7.59912 2.41064 6.271C2.17627 5.60693 2.09814 4.90381 2.09814 4.20068C2.09814 3.30225 2.29346 2.40381 2.68408 1.5835C4.59814 1.5835 5.80908 2.44287 7.25439 3.57568C8.46533 3.26318 9.71533 3.146 10.9653 3.146C12.0981 3.146 13.231 3.26318 14.3247 3.53662C15.77 2.40381 16.981 1.5835 18.856 1.5835C19.2466 2.40381 19.4419 3.30225 19.4419 4.20068C19.4419 4.90381 19.3638 5.60693 19.1294 6.23193C20.3013 7.59912 20.77 9.27881 20.77 11.0366ZM18.0747 13.146C18.0747 11.3101 16.9419 9.66943 14.9888 9.66943C14.2075 9.66943 13.4653 9.82568 12.645 9.94287C12.02 10.021 11.395 10.0601 10.77 10.0601C10.145 10.0601 9.52002 10.021 8.89502 9.94287C8.11377 9.82568 7.33252 9.66943 6.55127 9.66943C4.59814 9.66943 3.46533 11.3101 3.46533 13.146C3.46533 16.8179 6.82471 17.3647 9.75439 17.3647H11.7856C14.7153 17.3647 18.0747 16.8179 18.0747 13.146Z" fill="#FF214F"/>
</g>
<defs>
<clipPath id="clip0_1_122">
<rect width="20" height="20" fill="white" transform="matrix(1 0 0 -1 0.77002 20.0601)"/>
</clipPath>
</defs>
</svg>
