<svg width="15" height="15" viewBox="0 0 15 15" fill="none" xmlns="http://www.w3.org/2000/svg">
<g id="Icon" opacity="0.8" clip-path="url(#clip0_3_1203)">
<path id="Vector" d="M7.06995 0.720703C4.58167 0.720703 2.53088 2.74414 2.53088 5.25977C2.53088 8.8418 6.57776 13.5449 6.76917 13.7637L7.06995 14.1191L7.37073 13.7637C7.56213 13.5449 11.609 8.8418 11.609 5.25977C11.609 2.74414 9.55823 0.720703 7.06995 0.720703ZM7.06995 12.834C6.11292 11.6582 3.3512 7.99414 3.3512 5.25977C3.3512 3.20898 5.01917 1.54102 7.06995 1.54102C9.12073 1.54102 10.7887 3.20898 10.7887 5.25977C10.7887 7.99414 8.02698 11.6582 7.06995 12.834ZM7.06995 2.9082C5.70276 2.9082 4.60901 4.00195 4.60901 5.36914C4.60901 6.73633 5.70276 7.83008 7.06995 7.83008C8.43713 7.83008 9.53088 6.73633 9.53088 5.36914C9.53088 4.00195 8.43713 2.9082 7.06995 2.9082ZM7.06995 7.00977C6.1676 7.00977 5.42932 6.27148 5.42932 5.36914C5.42932 4.4668 6.1676 3.72852 7.06995 3.72852C7.97229 3.72852 8.71057 4.4668 8.71057 5.36914C8.71057 6.27148 7.97229 7.00977 7.06995 7.00977Z" fill="white"/>
</g>
<defs>
<clipPath id="clip0_3_1203">
<rect width="14.14" height="14" fill="white" transform="matrix(1 0 0 -1 0 14.3105)"/>
</clipPath>
</defs>
</svg>
