<svg width="21" height="21" viewBox="0 0 21 21" fill="none" xmlns="http://www.w3.org/2000/svg">
<g id="Icon" clip-path="url(#clip0_3_1220)">
<path id="Vector" d="M10.36 0.605469C5.16467 0.605469 0.945923 4.82422 0.945923 10.0195C0.945923 13.8867 3.25061 17.168 6.57092 18.6523C6.57092 17.9883 6.57092 17.207 6.72717 16.4648C6.92249 15.7227 7.93811 11.3477 7.93811 11.3477C7.93811 11.3477 7.66467 10.7617 7.66467 9.86328C7.66467 8.45703 8.44592 7.44141 9.46155 7.44141C10.3209 7.44141 10.7506 8.06641 10.7506 8.84766C10.7506 9.70703 10.2037 10.9961 9.89124 12.168C9.65686 13.1836 10.399 14.0039 11.4147 14.0039C13.1725 14.0039 14.3834 11.6992 14.3834 9.00391C14.3834 6.93359 12.9772 5.37109 10.4772 5.37109C7.62561 5.37109 5.82874 7.51953 5.82874 9.90234C5.82874 10.7227 6.06311 11.2695 6.45374 11.7383C6.60999 11.9336 6.64905 12.0117 6.57092 12.2461C6.53186 12.4414 6.45374 12.832 6.37561 13.0273C6.33655 13.2617 6.14124 13.3398 5.90686 13.2617C4.6178 12.7148 3.9928 11.2695 3.9928 9.66797C3.9928 6.97266 6.25842 3.76953 10.7115 3.76953C14.3053 3.76953 16.6881 6.38672 16.6881 9.16016C16.6881 12.8711 14.6178 15.6055 11.61 15.6055C10.5944 15.6055 9.6178 15.0586 9.3053 14.4336C9.3053 14.4336 8.75842 16.6211 8.64124 17.0117C8.44592 17.7539 8.0553 18.4961 7.70374 19.043C8.52405 19.2773 9.42249 19.4336 10.36 19.4336C15.5553 19.4336 19.774 15.2148 19.774 10.0195C19.774 4.82422 15.5553 0.605469 10.36 0.605469Z" fill="#EAF0FC"/>
</g>
<defs>
<clipPath id="clip0_3_1220">
<rect width="20" height="20" fill="white" transform="matrix(1 0 0 -1 0.359985 20.0195)"/>
</clipPath>
</defs>
</svg>
