<svg width="36" height="41" viewBox="0 0 36 41" fill="none" xmlns="http://www.w3.org/2000/svg">
<path d="M0.34375 0.879883V40.8799H35.6562V0.879883H0.34375ZM33.3125 38.5361H2.6875V3.22363H7.375V5.80176C6.04688 6.27051 5.03125 7.59863 5.03125 9.08301C5.03125 11.0361 6.67188 12.6768 8.625 12.6768C10.5 12.6768 12.1406 11.0361 12.1406 9.08301C12.1406 7.59863 11.125 6.27051 9.79688 5.80176V3.22363H16.8281V5.80176C15.4219 6.27051 14.4844 7.59863 14.4844 9.08301C14.4844 11.0361 16.0469 12.6768 18 12.6768C19.9531 12.6768 21.5156 11.0361 21.5156 9.08301C21.5156 7.59863 20.5781 6.27051 19.1719 5.80176V3.22363H26.2031V5.80176C24.875 6.27051 23.8594 7.59863 23.8594 9.08301C23.8594 11.0361 25.5 12.6768 27.375 12.6768C29.3281 12.6768 30.9688 11.0361 30.9688 9.08301C30.9688 7.59863 29.9531 6.27051 28.625 5.80176V3.22363H33.3125V38.5361ZM9.79688 9.08301C9.79688 9.78613 9.25 10.2549 8.625 10.2549C7.92188 10.2549 7.375 9.78613 7.375 9.08301C7.375 8.45801 7.92188 7.91113 8.625 7.91113C9.25 7.91113 9.79688 8.45801 9.79688 9.08301ZM19.1719 9.08301C19.1719 9.78613 18.625 10.2549 18 10.2549C17.375 10.2549 16.8281 9.78613 16.8281 9.08301C16.8281 8.45801 17.375 7.91113 18 7.91113C18.625 7.91113 19.1719 8.45801 19.1719 9.08301ZM28.625 9.08301C28.625 9.78613 28.0781 10.2549 27.375 10.2549C26.75 10.2549 26.2031 9.78613 26.2031 9.08301C26.2031 8.45801 26.75 7.91113 27.375 7.91113C28.0781 7.91113 28.625 8.45801 28.625 9.08301Z" fill="#FF214F"/>
</svg>
