<svg width="40" height="42" viewBox="0 0 40 42" fill="none" xmlns="http://www.w3.org/2000/svg">
<path d="M36.1719 23.7705C36.3281 24.2393 36.4844 24.8643 36.4844 25.6455C36.4844 26.8955 35.9375 27.9111 35 28.5361C35.3125 29.083 35.4688 29.708 35.4688 30.333C35.4688 31.6611 34.7656 32.833 33.6719 33.3799C33.8281 33.8486 33.9062 34.3955 33.9844 35.0205C33.9844 36.1143 33.6719 36.9736 33.0469 37.5986C32.3438 38.2236 31.4844 38.5361 30.3125 38.5361H17.0312C15.3125 38.5361 14.0625 37.5986 13.2031 36.8955C12.6562 36.5049 12.1875 36.1143 11.7969 36.1143H6.875C6.25 36.1143 5.70312 35.6455 5.70312 34.9424C5.70312 34.3174 6.25 33.7705 6.875 33.7705H11.7969C12.9688 33.7705 13.8281 34.4736 14.6094 35.0986C15.3906 35.6455 16.0938 36.1924 17.0312 36.1924H30.3125C30.7812 36.1924 31.1719 36.1143 31.3281 35.958C31.4844 35.7236 31.5625 35.4893 31.5625 35.0986C31.5625 34.0049 31.4062 33.8486 29.1406 33.8486H28.9062C28.2812 33.8486 27.7344 33.3018 27.7344 32.6768C27.7344 31.9736 28.2812 31.5049 28.9062 31.5049H31.875C32.5781 31.5049 33.125 31.0361 33.125 30.333C33.125 29.3174 32.1094 29.1611 31.4844 29.1611H29.6875C29.0625 29.1611 28.5156 28.6143 28.5156 27.9893C28.5156 27.2861 29.0625 26.8174 29.6875 26.8174H33.0469C33.8281 26.8174 34.1406 26.1924 34.1406 25.6455C34.1406 24.4736 34.1406 24.4736 33.125 24.4736C32.9688 24.4736 32.8125 24.4736 32.7344 24.4736H30.1562C29.5312 24.4736 28.9844 23.9268 28.9844 23.3018C28.9844 22.5986 29.5312 22.1299 30.1562 22.1299H32.5C32.5 22.1299 32.5 22.1299 32.5781 22.1299H34.0625C34.6875 22.1299 35.3125 21.583 35.3125 20.8799C35.3125 20.2549 34.7656 19.708 34.0625 19.708H23.5156C23.2031 19.708 22.8906 19.5518 22.6562 19.3174C22.4219 19.0049 22.3438 18.6924 22.4219 18.3018L23.5938 11.8955C23.75 11.2705 24.2188 9.39551 23.6719 8.61426C23.5938 8.37988 23.2812 8.14551 22.8906 8.14551C22.4219 8.14551 21.9531 8.53613 21.5625 9.23926L13.9062 21.5049C13.75 21.8955 13.3594 22.1299 12.9688 22.1299H6.875C6.25 22.1299 5.70312 21.583 5.70312 20.8799C5.70312 20.2549 6.25 19.708 6.875 19.708H12.2656L19.5312 7.98926C20.7031 6.11426 22.1094 5.80176 22.8906 5.80176C24.0625 5.80176 25.1562 6.42676 25.7031 7.44238C26.5625 8.84863 26.25 10.8018 25.9375 12.3643L25 17.3643H34.0625C36.0156 17.3643 37.6562 18.9268 37.6562 20.8799C37.6562 22.0518 37.0312 23.1455 36.1719 23.7705Z" fill="#FF214F"/>
</svg>
