<svg width="21" height="21" viewBox="0 0 21 21" fill="none" xmlns="http://www.w3.org/2000/svg">
<g id="Icon" clip-path="url(#clip0_3_1214)">
<path id="Vector" d="M18.3796 5.95703C18.4187 6.11328 18.4187 6.30859 18.4187 6.46484C18.4187 11.8945 14.2781 18.1445 6.73901 18.1445C4.43433 18.1445 2.24683 17.4805 0.449951 16.3086C0.762451 16.3477 1.11401 16.3477 1.42651 16.3477C3.34058 16.3477 5.13745 15.7227 6.5437 14.5898C4.70776 14.5508 3.22339 13.3789 2.71558 11.7383C2.94995 11.7773 3.22339 11.8164 3.45776 11.8164C3.84839 11.8164 4.19995 11.7773 4.55151 11.6992C2.67651 11.3086 1.27026 9.66797 1.27026 7.67578C1.27026 7.63672 1.27026 7.63672 1.27026 7.59766C1.81714 7.91016 2.44214 8.10547 3.1062 8.14453C2.01245 7.40234 1.27026 6.15234 1.27026 4.70703C1.27026 3.96484 1.50464 3.26172 1.8562 2.63672C3.84839 5.13672 6.89526 6.77734 10.2937 6.93359C10.2156 6.62109 10.1765 6.30859 10.1765 5.99609C10.1765 3.73047 12.0125 1.89453 14.2781 1.89453C15.489 1.89453 16.5437 2.40234 17.2859 3.18359C18.2234 3.02734 19.1218 2.67578 19.9031 2.20703C19.5906 3.14453 18.9265 3.96484 18.1062 4.47266C18.9265 4.35547 19.7078 4.16016 20.45 3.80859C19.9031 4.62891 19.2 5.37109 18.3796 5.95703Z" fill="#EAF0FC"/>
</g>
<defs>
<clipPath id="clip0_3_1214">
<rect width="20" height="20" fill="white" transform="matrix(1 0 0 -1 0.449951 20.0195)"/>
</clipPath>
</defs>
</svg>
