<svg width="51" height="50" viewBox="0 0 51 50" fill="none" xmlns="http://www.w3.org/2000/svg">
<path d="M44.6053 17.6758C41.578 15.7227 38.0624 14.7461 34.4491 14.7461C32.203 14.7461 29.9569 15.1367 27.9061 15.918L35.4257 8.30078C36.0116 8.59375 36.6952 8.78906 37.3788 8.78906C39.8202 8.78906 41.871 6.83594 41.871 4.39453C41.871 1.95312 39.8202 0 37.3788 0C35.035 0 32.9843 1.95312 32.9843 4.39453C32.9843 5.07812 33.1796 5.66406 33.3749 6.25L21.9491 17.6758C21.6561 17.6758 21.4608 17.6758 21.1678 17.6758C18.7264 17.6758 16.7733 19.6289 16.7733 22.0703C16.7733 22.2656 16.7733 22.5586 16.871 22.7539L6.91003 32.7148C6.3241 32.5195 5.73816 32.3242 5.05457 32.3242C2.61316 32.3242 0.660034 34.375 0.660034 36.7188C0.660034 39.1602 2.61316 41.2109 5.05457 41.2109C7.49597 41.2109 9.4491 39.1602 9.4491 36.7188C9.4491 36.0352 9.25378 35.3516 8.96082 34.7656L16.578 27.2461C15.7968 29.2969 15.4061 31.543 15.4061 33.7891C15.4061 38.1836 17.1639 41.8945 18.3358 43.75V50H27.1249V41.2109H20.2889C19.0194 38.7695 18.3358 36.1328 18.3358 33.7891C18.3358 31.25 18.9218 28.6133 20.1913 26.3672C20.4843 26.4648 20.7772 26.4648 21.1678 26.4648C23.6093 26.4648 25.5624 24.5117 25.5624 22.0703C25.5624 21.4844 25.4647 20.9961 25.2694 20.6055C30.1522 17.1875 36.5975 16.7969 41.871 19.4336V26.4648H50.66V17.6758H44.6053ZM37.3788 2.92969C38.2577 2.92969 38.9413 3.61328 38.9413 4.39453C38.9413 5.17578 38.2577 5.85938 37.3788 5.85938C36.5975 5.85938 35.9139 5.17578 35.9139 4.39453C35.9139 3.61328 36.5975 2.92969 37.3788 2.92969ZM5.05457 38.2812C4.27332 38.2812 3.58972 37.5977 3.58972 36.7188C3.58972 35.9375 4.27332 35.2539 5.05457 35.2539C5.83582 35.2539 6.51941 35.9375 6.51941 36.7188C6.51941 37.5977 5.83582 38.2812 5.05457 38.2812ZM21.2655 44.1406H24.1952V47.0703H21.2655V44.1406ZM21.1678 23.5352C20.3866 23.5352 19.703 22.8516 19.703 22.0703C19.703 21.2891 20.3866 20.6055 21.1678 20.6055C21.9491 20.6055 22.6327 21.2891 22.6327 22.0703C22.6327 22.8516 21.9491 23.5352 21.1678 23.5352ZM47.7303 23.5352H44.8007V20.6055H47.7303V23.5352Z" fill="#FF214F"/>
</svg>
